<svg width="24" height="25" viewBox="0 0 24 25" fill="none" xmlns="http://www.w3.org/2000/svg">
<path d="M9 21.0952H15M9 21.0952V16.0952M9 21.0952H3.6C3.26863 21.0952 3 20.8266 3 20.4952V16.6952C3 16.3638 3.26863 16.0952 3.6 16.0952H9M15 21.0952V9.09521M15 21.0952H20.4C20.7314 21.0952 21 20.8266 21 20.4952V3.69521C21 3.36384 20.7314 3.09521 20.4 3.09521H15.6C15.2686 3.09521 15 3.36384 15 3.69521V9.09521M9 16.0952V9.69522C9 9.36385 9.26863 9.09521 9.6 9.09521H15" stroke="#D6D6D6" stroke-width="1.5"/>
</svg>
