<svg width="24" height="25" viewBox="0 0 24 25" fill="none" xmlns="http://www.w3.org/2000/svg">
<path d="M1 20.0952V19.0952C1 15.2292 4.13401 12.0952 8 12.0952C11.866 12.0952 15 15.2292 15 19.0952V20.0952" stroke="#D6D6D6" stroke-width="1.5" stroke-linecap="round"/>
<path d="M13 14.0952C13 11.3338 15.2386 9.09521 18 9.09521C20.7614 9.09521 23 11.3338 23 14.0952V14.5952" stroke="#D6D6D6" stroke-width="1.5" stroke-linecap="round"/>
<path d="M8 12.0952C10.2091 12.0952 12 10.3043 12 8.09521C12 5.88607 10.2091 4.09521 8 4.09521C5.79086 4.09521 4 5.88607 4 8.09521C4 10.3043 5.79086 12.0952 8 12.0952Z" stroke="#D6D6D6" stroke-width="1.5" stroke-linecap="round" stroke-linejoin="round"/>
<path d="M18 9.09521C19.6569 9.09521 21 7.75206 21 6.09521C21 4.43836 19.6569 3.09521 18 3.09521C16.3431 3.09521 15 4.43836 15 6.09521C15 7.75206 16.3431 9.09521 18 9.09521Z" stroke="#D6D6D6" stroke-width="1.5" stroke-linecap="round" stroke-linejoin="round"/>
</svg>
