<svg width="20" height="22" viewBox="0 0 20 22" fill="none" xmlns="http://www.w3.org/2000/svg">
<g id="Group 16">
<path id="Vector" d="M16.1336 10.002C16.7155 15.3775 19 17.002 19 17.002H1C1 17.002 4 14.8687 4 7.40195C4 5.70456 4.63214 4.0767 5.75736 2.87647C6.88258 1.67623 8.4087 1.00195 10 1.00195C10.3373 1.00195 10.6717 1.03225 11 1.09144" stroke="#D6D6D6" stroke-width="1.5" stroke-linecap="round" stroke-linejoin="round"/>
<path id="Vector_2" d="M17 7.00195C18.6569 7.00195 20 5.6588 20 4.00195C20 2.3451 18.6569 1.00195 17 1.00195C15.3431 1.00195 14 2.3451 14 4.00195C14 5.6588 15.3431 7.00195 17 7.00195Z" fill="#2370F8"/>
<path id="Vector_3" d="M11.73 20.002C11.5542 20.3051 11.3019 20.5567 10.9982 20.7315C10.6946 20.9064 10.3504 20.9985 10 20.9985C9.64962 20.9985 9.30542 20.9064 9.00182 20.7315C8.69822 20.5567 8.44582 20.3051 8.27002 20.002" stroke="#D6D6D6" stroke-width="1.5" stroke-linecap="round" stroke-linejoin="round"/>
</g>
</svg>
