<svg width="24" height="25" viewBox="0 0 24 25" fill="none" xmlns="http://www.w3.org/2000/svg">
<path d="M12 11.0952H14.5H17" stroke="#D6D6D6" stroke-width="1.5" stroke-linecap="round" stroke-linejoin="round"/>
<path d="M12 7.09521H14.5H17" stroke="#D6D6D6" stroke-width="1.5" stroke-linecap="round" stroke-linejoin="round"/>
<path d="M8 15.0952V3.69521C8 3.36384 8.26863 3.09521 8.6 3.09521H20.4C20.7314 3.09521 21 3.36384 21 3.69521V17.0952C21 19.3043 19.2091 21.0952 17 21.0952" stroke="#D6D6D6" stroke-width="1.5" stroke-linecap="round" stroke-linejoin="round"/>
<path d="M5 15.0952H8H12.4C12.7314 15.0952 13.0031 15.362 13.0298 15.6923C13.1526 17.2099 13.7812 21.0952 17 21.0952H8H6C4.34315 21.0952 3 19.7521 3 18.0952V17.0952C3 15.9906 3.89543 15.0952 5 15.0952Z" stroke="#D6D6D6" stroke-width="1.5" stroke-linecap="round" stroke-linejoin="round"/>
</svg>
