<svg width="24" height="25" viewBox="0 0 24 25" fill="none" xmlns="http://www.w3.org/2000/svg">
<path d="M13.9929 19.4952V14.6952C13.9929 14.3638 14.2615 14.0952 14.5929 14.0952H19.3929C19.7243 14.0952 19.9929 14.3638 19.9929 14.6952V19.4952C19.9929 19.8266 19.7243 20.0952 19.3929 20.0952H14.5929C14.2615 20.0952 13.9929 19.8266 13.9929 19.4952Z" stroke="#D6D6D6" stroke-width="1.5"/>
<path d="M4 9.49521V4.69521C4 4.36384 4.26863 4.09521 4.6 4.09521H9.4C9.73137 4.09521 10 4.36384 10 4.69521V9.49521C10 9.82658 9.73137 10.0952 9.4 10.0952H4.6C4.26863 10.0952 4 9.82658 4 9.49521Z" stroke="#D6D6D6" stroke-width="1.5"/>
<path d="M4 19.4952V14.6952C4 14.3638 4.26863 14.0952 4.6 14.0952H9.4C9.73137 14.0952 10 14.3638 10 14.6952V19.4952C10 19.8266 9.73137 20.0952 9.4 20.0952H4.6C4.26863 20.0952 4 19.8266 4 19.4952Z" stroke="#D6D6D6" stroke-width="1.5"/>
<path d="M14 9.49521V4.69521C14 4.36384 14.2686 4.09521 14.6 4.09521H19.4C19.7314 4.09521 20 4.36384 20 4.69521V9.49521C20 9.82658 19.7314 10.0952 19.4 10.0952H14.6C14.2686 10.0952 14 9.82658 14 9.49521Z" stroke="#D6D6D6" stroke-width="1.5"/>
</svg>
