<svg width="33" height="32" viewBox="0 0 33 32" fill="none" xmlns="http://www.w3.org/2000/svg">
<rect x="0.5" width="32" height="32" rx="16" fill="#1F964F"/>
<path d="M16.5 15.1667H18.5833H20.6667" stroke="#D6D6D6" stroke-width="1.5" stroke-linecap="round" stroke-linejoin="round"/>
<path d="M16.5 11.8333H18.5833H20.6667" stroke="#D6D6D6" stroke-width="1.5" stroke-linecap="round" stroke-linejoin="round"/>
<path d="M13.1665 18.5V9C13.1665 8.72386 13.3904 8.5 13.6665 8.5H23.4998C23.776 8.5 23.9998 8.72386 23.9998 9V20.1667C23.9998 22.0076 22.5074 23.5 20.6665 23.5" stroke="#D6D6D6" stroke-width="1.5" stroke-linecap="round" stroke-linejoin="round"/>
<path d="M10.6667 18.5H13.1667H16.8333C17.1095 18.5 17.3359 18.7223 17.3582 18.9976C17.4605 20.2623 17.9843 23.5 20.6667 23.5H13.1667H11.5C10.1193 23.5 9 22.3807 9 21V20.1667C9 19.2462 9.74619 18.5 10.6667 18.5Z" stroke="#D6D6D6" stroke-width="1.5" stroke-linecap="round" stroke-linejoin="round"/>
</svg>
