<svg width="32" height="32" viewBox="0 0 32 32" fill="none" xmlns="http://www.w3.org/2000/svg">
<rect width="32" height="32" rx="16" fill="#F62557"/>
<path d="M6.8335 22.6667V21.8333C6.8335 18.6117 9.44517 16 12.6668 16C15.8885 16 18.5002 18.6117 18.5002 21.8333V22.6667" stroke="#D6D6D6" stroke-width="1.5" stroke-linecap="round"/>
<path d="M16.8335 17.6667C16.8335 15.3655 18.699 13.5 21.0002 13.5C23.3013 13.5 25.1668 15.3655 25.1668 17.6667V18.0833" stroke="#D6D6D6" stroke-width="1.5" stroke-linecap="round"/>
<path d="M12.6668 15.9999C14.5077 15.9999 16.0002 14.5075 16.0002 12.6666C16.0002 10.8256 14.5077 9.33325 12.6668 9.33325C10.8259 9.33325 9.3335 10.8256 9.3335 12.6666C9.3335 14.5075 10.8259 15.9999 12.6668 15.9999Z" stroke="#D6D6D6" stroke-width="1.5" stroke-linecap="round" stroke-linejoin="round"/>
<path d="M21 13.5C22.3807 13.5 23.5 12.3807 23.5 11C23.5 9.61929 22.3807 8.5 21 8.5C19.6192 8.5 18.5 9.61929 18.5 11C18.5 12.3807 19.6192 13.5 21 13.5Z" stroke="#D6D6D6" stroke-width="1.5" stroke-linecap="round" stroke-linejoin="round"/>
</svg>
