<svg width="30" height="31" viewBox="0 0 30 31" fill="none" xmlns="http://www.w3.org/2000/svg">
<g id="filter">
<path id="Vector" d="M4.99951 4.74658H24.9996C25.69 4.74658 26.2496 5.30613 26.2496 5.99642L26.2499 7.97869C26.25 8.31029 26.1182 8.62831 25.8837 8.86277L17.8656 16.8805C17.6312 17.1148 17.4995 17.4328 17.4995 17.7643V25.6456C17.4995 26.4588 16.7352 27.0556 15.9464 26.8583L13.4464 26.2333C12.8899 26.0942 12.4995 25.5942 12.4995 25.0206V17.7643C12.4995 17.4328 12.3678 17.1148 12.1334 16.8805L4.11562 8.86269C3.8812 8.62828 3.74951 8.31033 3.74951 7.97882V5.99658C3.74951 5.30623 4.30915 4.74658 4.99951 4.74658Z" stroke="#D6D6D6" stroke-width="1.5" stroke-linecap="round" stroke-linejoin="round"/>
</g>
</svg>
