<svg width="30" height="31" viewBox="0 0 30 31" fill="none" xmlns="http://www.w3.org/2000/svg">
<g id="view-grid">
<path id="Vector" d="M17.5 26.4966V19.2466C17.5 18.8323 17.8358 18.4966 18.25 18.4966H25.5C25.9142 18.4966 26.25 18.8323 26.25 19.2466V26.4966C26.25 26.9108 25.9142 27.2466 25.5 27.2466H18.25C17.8358 27.2466 17.5 26.9108 17.5 26.4966Z" stroke="#D6D6D6" stroke-width="1.5"/>
<path id="Vector_2" d="M3.75 26.4966V19.2466C3.75 18.8323 4.08579 18.4966 4.5 18.4966H11.75C12.1642 18.4966 12.5 18.8323 12.5 19.2466V26.4966C12.5 26.9108 12.1642 27.2466 11.75 27.2466H4.5C4.08579 27.2466 3.75 26.9108 3.75 26.4966Z" stroke="#D6D6D6" stroke-width="1.5"/>
<path id="Vector_3" d="M17.5 12.7466V5.49658C17.5 5.08237 17.8358 4.74658 18.25 4.74658H25.5C25.9142 4.74658 26.25 5.08237 26.25 5.49658V12.7466C26.25 13.1608 25.9142 13.4966 25.5 13.4966H18.25C17.8358 13.4966 17.5 13.1608 17.5 12.7466Z" stroke="#D6D6D6" stroke-width="1.5"/>
<path id="Vector_4" d="M3.75 12.7466V5.49658C3.75 5.08237 4.08579 4.74658 4.5 4.74658H11.75C12.1642 4.74658 12.5 5.08237 12.5 5.49658V12.7466C12.5 13.1608 12.1642 13.4966 11.75 13.4966H4.5C4.08579 13.4966 3.75 13.1608 3.75 12.7466Z" stroke="#D6D6D6" stroke-width="1.5"/>
</g>
</svg>
